<svg xmlns="http://www.w3.org/2000/svg" viewBox="0 0 900 760">
  <defs>
    <style>
      .edge{stroke:#111827;stroke-width:5;fill:none;vector-effect:non-scaling-stroke}
      .inner{stroke:#111827;stroke-width:4;fill:none;vector-effect:non-scaling-stroke}
      .mark{stroke:#111827;stroke-width:3;fill:none;vector-effect:non-scaling-stroke}
      .label{font-family:Heebo, Arial, sans-serif;font-size:34px;fill:#111827}
      .small{font-family:Heebo, Arial, sans-serif;font-size:28px;fill:#111827}
    </style>
  </defs>

  <line class="edge" x1="140" y1="120" x2="560" y2="120"/>
  <line class="edge" x1="560" y1="120" x2="560" y2="540"/>
  <line class="edge" x1="560" y1="540" x2="140" y2="540"/>
  <line class="edge" x1="140" y1="540" x2="140" y2="120"/>

  <line class="inner" x1="140" y1="540" x2="560" y2="120"/>

  <line class="inner" x1="140" y1="305" x2="560" y2="120"/>
  <line class="inner" x1="410" y1="270" x2="560" y2="120"/>
  <line class="inner" x1="140" y1="305" x2="410" y2="270"/>

  <polyline class="mark" points="374,274 392,292 410,274 392,256 374,274"/>

  <path class="mark" d="M 505 120 A 55 55 0 0 1 470 155"/>
  <path class="mark" d="M 490 155 A 75 75 0 0 1 430 195"/>

  <text class="label" x="106" y="110">A</text>
  <text class="label" x="567" y="110">B</text>
  <text class="label" x="567" y="575">C</text>
  <text class="label" x="106" y="575">D</text>
  <text class="label" x="98" y="318">E</text>
  <text class="label" x="403" y="315">F</text>

  <text class="small" x="444" y="170">1</text>
  <text class="small" x="430" y="135">2</text>
</svg>
